PathFileType	4	(X/Y/Z)	walk-thru1-4-TP.trc
DataRate	CameraRate	NumFrames	NumMarkers	Units	OrigDataRate	OrigDataStartFrame	OrigNumFrames
120.00	120.00	       4	60	mm	120.00	257	       512
Frame#	Time	Top.Head			Front.Head			Rear.Head			Jaw			C7			R.Clavicle			L.Clavicle			R.Shoulder			L.Shoulder			R.Scapula			L.Scapula			R.Scap.Inf			R.Biceps.Lateral			R.Elbow			R.Elbow.Medial			R.Forearm			R.Ulna			R.Radius			R.Wrist			R.Thumb.M1			R.Thumb.M2			R.Thumb.M3			R.Finger3.M1			R.Finger3.M2			R.Finger3.M3			L.Biceps.Lateral			L.Elbow			L.Elbow.Medial			L.Forearm			L.Ulna			L.Radius			L.Wrist			L.Thumb.M1			L.Thumb.M2			L.Thumb.M3			L.Finger3.M1			L.Finger3.M2			L.Finger3.M3			V.Sacral			R.ASIS			L.ASIS			R.Thigh			R.Thigh.Front			R.Knee			R.Knee.Medial			R.Shank			R.Ankle			R.Ankle.Medial			R.Heel			R.Toe			R.MedFoot			L.Thigh			L.Knee			L.Knee.Medial			L.Shank			L.Ankle			L.Ankle.Medial			L.Heel			L.Toe			L.MedFoot			V_mid_ASIS			V_R_Knee_JC			V_L_Knee_JC			V_R_Elbow_JC			V_L_Elbow_JC			V_R_Ankle_JC			V_L_Ankle_JC			V_R_Wrist_JC			V_L_Wrist_JC			V_R_ScaTrpz_1stMC_JC			V_R_1stMC_1stPP_JC			V_R_1stPP_1stDP_JC			V_R_LunCap_3rdMC_JC			V_R_3rdMC_3rdPP_JC			V_R_3rdPP_3rdMP_JC			V_R_3rdMP_3rdDP_JC			V_L_ScaTrpz_1stMC_JC			V_L_1stMC_1stPP_JC			V_L_1stPP_1stDP_JC			V_L_LunCap_3rdMC_JC			V_L_3rdMC_3rdPP_JC			V_L_3rdPP_3rdMP_JC			V_L_3rdMP_3rdPP_JC			V_ROOT_JC			V_R_Hip_JC			V_L_Hip_JC			V_R_GlenHum_JC			V_L_GlenHum_JC			V_ForeHead_Ctr			V_Vertex			V_Sagit_Lambdoid_Suture			V_R_FrontoTemp			V_L_FrontoTemporal			V_R_ParietalOccip			V_L_ParietalOcciptal			V_R_Temporal			V_L_Temporal			V_mid_FrontRearHead			V_mid_RLGlenHumCtrs			V_C7_vert			V_C1_vert			V_Mid_Hip			
		X1	Y1	Z1	X2	Y2	Z2	X3	Y3	Z3	X4	Y4	Z4	X5	Y5	Z5	X6	Y6	Z6	X7	Y7	Z7	X8	Y8	Z8	X9	Y9	Z9	X10	Y10	Z10	X11	Y11	Z11	X12	Y12	Z12	X13	Y13	Z13	X14	Y14	Z14	X15	Y15	Z15	X16	Y16	Z16	X17	Y17	Z17	X18	Y18	Z18	X19	Y19	Z19	X20	Y20	Z20	X21	Y21	Z21	X22	Y22	Z22	X23	Y23	Z23	X24	Y24	Z24	X25	Y25	Z25	X26	Y26	Z26	X27	Y27	Z27	X28	Y28	Z28	X29	Y29	Z29	X30	Y30	Z30	X31	Y31	Z31	X32	Y32	Z32	X33	Y33	Z33	X34	Y34	Z34	X35	Y35	Z35	X36	Y36	Z36	X37	Y37	Z37	X38	Y38	Z38	X39	Y39	Z39	X40	Y40	Z40	X41	Y41	Z41	X42	Y42	Z42	X43	Y43	Z43	X44	Y44	Z44	X45	Y45	Z45	X46	Y46	Z46	X47	Y47	Z47	X48	Y48	Z48	X49	Y49	Z49	X50	Y50	Z50	X51	Y51	Z51	X52	Y52	Z52	X53	Y53	Z53	X54	Y54	Z54	X55	Y55	Z55	X56	Y56	Z56	X57	Y57	Z57	X58	Y58	Z58	X59	Y59	Z59	X60	Y60	Z60	

257	2.133	221.62869	-18.47458	1797.61450	319.76089	-9.60149	1684.85486	91.69157	-22.67868	1700.71399	271.85110	-13.54303	1518.98328	76.73270	-21.66034	1563.78625	180.81140	-131.89870	1470.08508	177.82620	95.91504	1472.81714	145.20557	-222.36400	1466.42175	106.47773	186.87132	1482.14868	30.36471	-112.27151	1482.31201	23.07039	57.29166	1487.38562	-17.82644	-125.47817	1395.42139	104.30998	-285.21530	1287.68396	78.30116	-308.23114	1133.30786	55.92401	-219.99263	1112.69067	175.65582	-250.56146	1029.72778	159.88432	-293.65674	925.88220	221.36897	-230.15915	906.90033	226.93515	-268.45169	859.51361	236.81816	-222.00804	875.18176	276.31104	-189.83081	837.83710	317.83600	-185.27649	815.79095	279.64499	-268.69214	797.38892	299.45441	-226.42877	747.18152	287.05447	-182.53136	722.17303	72.13350	250.17058	1335.58826	43.95487	293.59344	1161.95056	0.97971	227.14075	1147.17114	108.00272	268.21829	1054.60474	53.12527	289.32770	966.56793	120.15609	238.14722	913.66260	111.01120	272.69055	856.87048	127.99648	226.86400	847.72876	125.85657	190.86858	799.09174	123.06422	196.43811	737.39984	122.19217	288.53842	781.06439	109.22529	268.34567	725.29175	82.87130	246.97874	683.44360	-20.87372	-14.12022	1088.04712	75.14835	-198.64224	1032.53516	80.73830	176.66936	1028.87317	91.69807	-147.55185	626.21039	153.68602	-57.95242	545.40216	96.07558	-115.39326	494.55341	88.18800	-0.93118	499.30524	73.53919	-67.98495	314.95035	-65.27754	-93.46774	77.26886	-30.00063	3.31578	96.00098	-125.42712	-32.97925	58.66200	114.74536	-57.20686	46.86456	45.54950	-14.55765	70.66459	212.54799	167.31752	661.84528	272.54425	142.70821	529.14441	280.16318	26.25295	528.74060	314.99258	97.87711	336.98563	263.34900	117.21697	78.98392	293.77734	26.73287	125.08616	214.50262	54.32869	63.55970	438.83841	67.25365	77.54754	385.08643	42.82644	92.70065																																																																																																																															
258	2.142	226.99748	-19.41532	1798.40918	324.84790	-8.90177	1683.25623	97.33467	-21.20873	1700.51636	277.62219	-12.92170	1518.51038	82.72630	-19.55928	1563.88879	185.53236	-131.70325	1469.37988	183.97009	95.46982	1471.91052	150.87657	-221.69896	1465.41699	112.43795	188.81514	1481.55994	35.73277	-112.13567	1481.69727	27.79372	58.01530	1486.37854	-12.38635	-123.47711	1394.73792	109.82895	-285.05972	1287.28613	83.09145	-307.40482	1132.80408	61.47316	-218.29054	1112.66968	179.01750	-250.19977	1028.57825	163.65457	-293.69287	925.13416	226.20927	-229.00731	906.03790	231.19144	-268.04547	859.07404	240.83694	-221.60521	874.35034	280.59839	-189.23340	837.04224	321.57755	-185.86420	815.24670	283.24042	-268.08051	795.71368	302.43658	-226.11523	746.13049	289.95990	-181.56467	721.44513	78.26598	250.95203	1334.64783	51.53127	294.04095	1160.49402	7.34680	227.69887	1146.56970	114.26265	269.33276	1053.69006	59.51998	290.10214	965.68762	127.35007	237.40047	913.68927	118.16744	273.96555	856.00049	134.55011	225.80739	847.60309	130.93913	190.24686	799.03857	131.12527	193.37364	735.94977	130.26434	288.45328	780.78546	116.42105	268.00925	725.15656	90.77736	247.45319	681.89734	-15.16406	-12.45722	1088.08386	79.66649	-198.86832	1031.94934	88.70965	177.99486	1028.38611	95.11446	-147.53062	625.64856	157.59399	-58.24731	544.76990	99.05219	-114.77933	494.02267	91.74049	-1.35029	498.91098	75.60859	-67.70953	314.64462	-64.70547	-93.49776	77.95301	-30.03517	3.58610	97.32996	-124.90601	-33.21283	59.40620	114.64670	-57.27435	46.80180	45.67600	-14.82617	70.79163	218.24652	167.77992	660.49042	276.99786	142.39877	528.08594	284.71857	25.74584	527.95093	322.70639	95.89789	336.87241	274.29706	115.77190	78.40099	305.53214	25.31381	124.79854	226.32816	52.06434	63.08332	450.21875	66.15434	76.71963	397.21094	41.07206	91.78145																																																																																																																															
259	2.150	232.67947	-18.04173	1797.98035	330.50491	-8.07732	1683.39746	102.88738	-20.20901	1699.82605	282.48410	-12.51491	1517.26025	87.98991	-16.58079	1563.93677	191.81081	-131.31357	1469.44690	190.58481	96.54253	1471.70520	155.56673	-221.05574	1464.81372	118.56661	189.77779	1481.00562	41.66045	-110.63246	1481.55029	33.32565	60.09937	1486.05908	-6.93109	-122.67663	1394.74451	114.21418	-284.24924	1287.05164	87.69366	-306.35403	1132.42932	67.41396	-218.70757	1112.64722	184.22028	-249.67924	1028.14355	167.75188	-292.85403	924.87128	228.77164	-228.19894	905.32397	234.30281	-267.30325	858.44312	244.83072	-221.12134	873.68097	283.83533	-188.69888	835.04553	324.21268	-184.61613	813.93597	286.35736	-267.29465	794.75189	305.44794	-225.54645	744.71808	292.87473	-181.85176	720.03253	83.82225	252.05777	1334.44287	57.96355	294.78973	1160.07971	14.73769	228.23267	1145.31775	120.63292	269.73450	1052.89404	66.01800	290.06726	964.35712	134.64502	238.60181	912.84900	124.54564	272.73706	855.65375	140.93785	226.34026	847.64917	139.83691	191.36220	798.51398	138.24092	195.82726	735.58966	137.21063	288.79233	780.77155	123.97005	268.43323	724.69519	98.23394	247.97649	681.73236	-9.34387	-10.60511	1087.64783	85.58675	-198.35310	1031.48145	92.70990	177.59486	1028.53198	99.40430	-146.83336	625.23468	160.88713	-58.50466	544.37781	102.27010	-115.47885	493.73593	94.05646	-0.62020	498.54129	77.43526	-68.11953	313.66296	-64.24472	-93.50851	78.55850	-29.43684	3.66569	98.64616	-124.96447	-33.35372	59.84357	114.58318	-57.42365	46.84254	45.52507	-14.67309	70.72656	222.34660	167.35121	659.23157	281.93948	142.04248	527.32922	289.47946	25.11653	527.80115	329.70422	95.44055	336.43130	283.88745	114.15487	77.46939	315.75983	24.38842	124.97901	237.21803	49.81894	63.06870	460.97812	66.18810	75.11506	408.41397	39.97216	90.73173																																																																																																																															
260	2.158	238.14911	-17.54417	1796.78210	337.00687	-5.50451	1682.26721	109.06629	-19.32790	1699.94592	288.54825	-11.97008	1516.66821	94.36915	-18.74268	1563.47754	197.55104	-129.87442	1468.89539	197.05205	98.98381	1470.27490	161.36714	-220.02354	1464.91943	124.37139	190.15714	1480.14465	46.46294	-109.21711	1480.16797	40.01586	59.81100	1484.93530	-1.26169	-122.46004	1394.44495	119.86936	-283.37936	1286.43311	92.19444	-305.48810	1132.16431	72.02829	-218.14949	1112.27576	188.32344	-249.36688	1027.85327	171.36951	-290.86133	923.98242	232.97533	-226.93048	903.31152	238.08972	-266.69281	856.75732	247.34282	-220.53152	872.57184	287.02182	-188.23653	833.64551	328.31595	-184.62952	811.79980	289.60785	-266.56427	793.24438	308.61258	-224.95168	743.13831	295.79837	-181.96375	718.10962	89.87334	252.99097	1333.81335	63.91450	295.81641	1159.51318	20.30520	230.09116	1145.37109	127.73399	270.75137	1052.36414	72.94738	290.20465	963.92365	141.32874	239.48286	912.24866	132.02087	272.32428	855.42004	149.09146	226.95435	846.45728	146.22801	191.83887	798.22858	145.90337	195.94722	735.81567	143.97887	289.14484	780.45996	130.52881	268.50110	723.90735	106.26189	247.06631	681.88336	-3.21265	-10.29370	1086.62646	90.57131	-197.31529	1031.12122	98.83287	178.94006	1027.77063	102.79691	-147.35834	625.48438	165.21158	-57.63373	543.37756	105.69769	-115.75260	493.40802	98.37127	-0.65327	498.13458	78.70143	-67.48951	312.98352	-64.00159	-93.67097	78.92766	-29.08160	3.64401	99.05110	-124.84144	-33.52805	60.57160	114.58318	-57.42365	46.84254	45.76688	-14.68454	70.82949	227.18013	167.52063	658.18939	286.32297	141.81163	525.65454	294.07535	24.19445	526.75940	337.01935	94.40129	336.32361	293.73065	111.82555	75.89530	326.17596	23.11439	124.17445	247.52357	47.54103	62.28583	471.10004	64.67550	73.42442	418.63272	38.76123	90.02622																																																																																																																															
